<svg width="77" height="76" viewBox="0 0 77 76" fill="none" xmlns="http://www.w3.org/2000/svg">
<path fill-rule="evenodd" clip-rule="evenodd" d="M5.12131 0.878656C4.145 -0.0976543 2.56209 -0.0976543 1.58578 0.878656C0.609468 1.85497 0.609468 3.43788 1.58578 4.41419L35.1734 38.0018L1.58578 71.5894C0.609468 72.5657 0.60947 74.1486 1.58578 75.1249C2.56209 76.1012 4.145 76.1012 5.12131 75.1249L38.7089 41.5373L72.2965 75.1249C73.2728 76.1012 74.8557 76.1012 75.832 75.1249C76.8083 74.1486 76.8083 72.5656 75.832 71.5893L42.2445 38.0018L75.832 4.41425C76.8083 3.43794 76.8083 1.85503 75.832 0.878717C74.8557 -0.0975933 73.2728 -0.0975933 72.2965 0.878717L38.7089 34.4663L5.12131 0.878656Z" fill="black"/>
</svg>
